PathFileType	4	(X/Y/Z)	C:/Users/beibeiliu/ov580/test_trc/User3\sequence.18_training_dense_right.trc
DataRate	CameraRate	NumFrames	NumMarkers	Units	OrigDataRate	OrigDataStartFrame	OrigNumFrames
120	120	10	19	mm	120	1	84
Frame#	Time	ThumbCMC			ThumbMCP			ThumbIP			ThumbTip			IndexMCP			IndexPIP			IndexTip			MiddleMCP			MiddlePIP			MiddleTip			RingMCP			RingPIP			RingTip			PinkyMCP			PinkyPIP			PinkyTip			BackHand1			BackHand2			BackHand3	
		X0	Y0	Z0	X1	Y1	Z1	X2	Y2	Z2	X3	Y3	Z3	X4	Y4	Z4	X5	Y5	Z5	X6	Y6	Z6	X7	Y7	Z7	X8	Y8	Z8	X9	Y9	Z9	X10	Y10	Z10	X11	Y11	Z11	X12	Y12	Z12	X13	Y13	Z13	X14	Y14	Z14	X15	Y15	Z15	X16	Y16	Z16	X17	Y17	Z17	X18	Y18	Z18	
0	0	161.097	-39.176	5.47803	159.341	-8.83073	-21.4167	140.596	4.47662	-45.3344	114.334	1.98736	-52.5057	156.151	-56.5893	-68.8512	160.842	-53.2475	-97.4911	167.074	-52.8313	-117.682	125.485	-40.2952	-73.1067	126.466	-6.45141	-75.2815	129.158	-7.45991	-34.8508	110.073	-30.8491	-57.9042	110.835	-2.75339	-45.4067	120.343	-15.5812	-14.3631	95.912	-31.139	-45.2833	100.706	-6.2785	-32.4491	109.361	-16.7452	-5.99562	115.79	-74.8095	-20.1935	118.957	-82.8119	12.005	149.84	-74.2554	-4.83099	
1	0.00833333	167.879	-47.4531	4.33447	164.314	-24.3878	-18.9958	149.83	-14.2617	-49.6363	126.604	-13.8297	-60.8328	172.33	-75.6638	-61.537	183.412	-77.3422	-88.8579	186.633	-77.6126	-113.813	145.719	-61.7201	-70.543	142.857	-26.1597	-76.0841	140.405	-22.7983	-37.1061	127.131	-50.4387	-62.1388	118.335	-24.1417	-55.3606	129.392	-27.2916	-20.8116	109.395	-51.5011	-48.737	111.499	-23.7755	-40.0989	121.123	-32.4618	-12.8659	126.673	-88.603	-16.0248	125.187	-91.5085	16.4182	159.136	-85.951	-0.163179	
2	0.0166667	173.256	-47.7686	12.5209	167.293	-29.7635	-20.5107	157.766	-21.2355	-51.1046	135.366	-28.3722	-63.2476	186.755	-83.4149	-54.6322	200.859	-84.8912	-76.542	205.854	-86.9625	-101.968	160.149	-69.7277	-71.3656	155.749	-38.0967	-76.7273	148.134	-31.6274	-37.4098	137.448	-64.0838	-61.4277	132.87	-36.1691	-60.3238	134.643	-34.2739	-25.5176	121.843	-63.4349	-52.0905	119.213	-37.0351	-46.1405	125.293	-37.6534	-18.356	137.006	-96.2706	-13.3305	130.639	-97.5941	17.0889	165.907	-89.7175	7.67109	
3	0.025	175.082	-40.5325	11.4317	167.785	-22.1962	-18.4206	156.724	-20.4683	-52.0247	135.745	-29.5458	-66.5449	198.795	-74.2875	-48.2341	213.789	-74.718	-75.7622	218.895	-76.6692	-98.4827	166.796	-69.6571	-67.543	157.138	-37.4085	-75.1203	148.272	-31.4308	-39.1136	148.046	-64.1037	-61.8393	135.4	-35.4391	-58.1478	138.276	-34.249	-25.7528	129.821	-67.4264	-50.9393	124.124	-41.4775	-48.6604	128.95	-41.4338	-15.4612	151.239	-95.6627	-10.2694	140.097	-93.6618	21.7859	177.877	-81.2856	8.26128	
4	0.0333333	171.343	-25.0676	10.8614	158.45	-11.537	-18.6295	148.677	-10.3525	-50.8409	131.031	-26.9403	-66.2066	203.896	-53.1358	-50.7616	217.299	-47.8902	-71.1627	222.619	-47.7185	-96.2227	176.216	-54.8553	-62.6833	155.608	-26.7842	-73.5546	144.368	-21.6545	-39.2101	152.796	-58.1542	-56.4339	134.188	-30.1604	-56.4394	134.104	-29.9651	-22.7839	133.303	-66.3189	-48.77	122.975	-37.4908	-45.0339	128.366	-40.5699	-15.1441	160.965	-84.9256	-6.38463	149.942	-89.257	22.4949	179.083	-67.0729	12.5415	
5	0.0416667	154.862	-7.40881	10.1131	138.835	-1.32804	-18.1743	128.951	-1.86901	-45.9962	120.994	-20.9026	-64.2681	196.736	-15.2858	-48.5387	205.348	-10.9595	-74.2213	215.445	-0.185428	-96.2531	172.146	-33.4288	-62.7537	144.114	-17.7968	-75.8494	130.079	-14.881	-40.2798	152.129	-41.9335	-58.3903	123.841	-30.8299	-57.8473	123.561	-25.7529	-25.6357	136.919	-58.6208	-51.2062	119.316	-39.7739	-46.9956	122.647	-39.6081	-12.0043	169.957	-68.5811	-9.53632	163.908	-70.9118	20.2233	181.163	-40.8774	9.41337	
6	0.05	134.325	0.154277	10.9659	115.511	6.4857	-17.9661	106.933	1.67314	-50.4483	106.049	-21.2122	-67.4399	176.538	10.3368	-48.9989	182.893	23.8777	-72.8994	188.035	26.9594	-96.2932	160.34	-11.3412	-63.4393	128.339	-9.00411	-74.825	114.846	-15.7387	-38.4161	145.001	-34.3451	-59.3343	114.825	-32.5528	-56.4729	112.55	-30.5627	-23.6414	141.269	-50.4403	-49.1381	112.668	-44.0612	-43.4162	118.94	-40.7854	-11.7327	173.816	-44.8561	-6.42827	167.383	-50.7401	22.4348	170.964	-15.9896	10.2949	
7	0.0583333	112.547	0.751555	16.6871	93.7988	0.944659	-15.7729	86.6514	-5.93838	-46.4864	94.1115	-26.9024	-66.5953	149.617	26.7937	-47.3682	151.767	37.1246	-74.2823	154.718	47.5661	-96.5803	140.443	-3.23492	-64.2027	109.597	-10.7772	-72.5163	102.802	-24.6204	-34.1328	133.755	-28.9492	-58.2278	105.806	-38.1666	-53.1891	103.23	-33.6757	-21.6341	138.548	-44.8223	-48.4508	110.078	-46.7892	-45.3101	111.195	-45.7521	-11.3544	167.84	-26.205	-10.1857	164.092	-37.2559	24.2445	153.675	-0.838561	14.449	
8	0.0666667	101.397	-6.17354	14.2522	79.3793	-8.84061	-12.1879	74.4402	-16.909	-40.7133	81.9594	-34.6306	-62.22	129.46	25.7968	-47.3612	128.73	39.0156	-70.3301	129.456	45.8291	-91.2125	127.139	-4.23345	-61.8489	96.4923	-19.7591	-69.5584	89.8603	-29.9378	-37.3181	126.783	-26.358	-53.9513	99.3856	-41.7375	-53.0669	98.4709	-41.6536	-16.5966	131.468	-45.969	-48.2586	104.467	-51.4027	-41.0343	107.547	-53.7307	-11.6425	160.212	-24.2803	-8.45902	158.953	-33.8839	21.6482	140.311	-2.19613	15.7154	
9	0.075	89.6468	-12.575	21.0687	69.3702	-20.573	-10.1302	63.5322	-28.7566	-38.204	75.1865	-45.7544	-60.6296	115.238	18.6258	-47.2433	108.947	31.6227	-67.1969	108.114	38.9904	-94.6798	111.886	-8.27476	-62.7302	86.1413	-29.7528	-67.6416	80.9366	-39.448	-33.3073	118.156	-33.1271	-52.8922	92.1636	-50.2413	-50.8299	91.1129	-49.4059	-16.1755	125.537	-53.141	-46.8852	99.5167	-61.1367	-38.6896	99.9891	-55.8719	-8.87617	146.663	-22.5478	-5.05827	151.819	-33.0084	20.995	132.006	-4.71941	16.6367	
